<svg width="354" height="212" viewBox="0 0 354 212" fill="none" xmlns="http://www.w3.org/2000/svg">
<g clip-path="url(#clip0)">
<path d="M271.031 209.603C266.498 205.767 263.746 199.707 264.468 193.807C265.189 187.908 269.661 182.485 275.461 181.232C281.261 179.979 287.873 183.447 289.635 189.122C290.604 178.18 291.722 166.78 297.529 157.461C302.788 149.024 311.896 142.987 321.768 141.907C331.639 140.827 342.032 144.906 348.189 152.71C354.345 160.515 355.852 171.861 351.541 180.821C348.364 187.422 342.512 192.334 336.381 196.33C316.568 209.135 292.806 214.343 269.465 210.994L271.031 209.603Z" fill="#F2F2F2"/>
<path d="M338.427 145.132C330.282 151.778 322.81 159.21 316.118 167.322C305.647 179.973 297.173 194.158 290.992 209.382C290.539 210.493 292.34 210.976 292.787 209.878C302.9 185.136 319.044 163.329 339.744 146.451C340.673 145.693 339.349 144.38 338.427 145.132Z" fill="white"/>
<path d="M113.958 208.56C120.183 203.291 123.964 194.968 122.973 186.865C121.981 178.763 115.84 171.314 107.873 169.593C99.9064 167.872 90.825 172.635 88.4053 180.431C87.0736 165.402 85.5391 149.743 77.5622 136.944C70.3393 125.355 57.8291 117.063 44.2708 115.58C30.7126 114.096 16.4375 119.699 7.98171 130.419C-0.474074 141.138 -2.54444 156.722 3.37777 169.029C7.74046 178.095 15.7781 184.842 24.1995 190.331C51.0667 207.843 84.3954 215.146 116.108 210.471" fill="#F2F2F2"/>
<path d="M21.3892 120.01C32.5765 129.137 42.8396 139.346 52.0301 150.487C61.2221 161.618 69.3146 173.615 76.1941 186.31C80.0394 193.432 83.4937 200.758 86.5416 208.257C87.1631 209.783 84.6903 210.447 84.0757 208.938C78.6771 195.718 71.998 183.059 64.1341 171.144C56.3085 159.272 47.3516 148.188 37.3893 138.049C31.7546 132.317 25.8095 126.899 19.581 121.821C18.3043 120.78 20.1231 118.977 21.3892 120.01L21.3892 120.01Z" fill="white"/>
<path d="M254.107 211.536H105.59V58.8958C105.59 26.4205 131.966 0 164.386 0H195.31C227.731 0 254.107 26.4205 254.107 58.8958V211.536Z" fill="#F2F2F2"/>
<path d="M223.183 211.536H105.59V58.8957C105.557 46.4519 109.491 34.3226 116.818 24.2738C117.088 23.905 117.358 23.541 117.636 23.181C121.18 18.5248 125.397 14.4241 130.149 11.0144C130.418 10.8188 130.687 10.6265 130.961 10.4343C134.937 7.67794 139.238 5.42471 143.767 3.72584C144.036 3.62375 144.309 3.52145 144.583 3.42333C148.679 1.95932 152.924 0.956482 157.241 0.433329C157.509 0.396707 157.783 0.368051 158.058 0.339394C162.265 -0.111178 166.508 -0.111178 170.715 0.339394C170.989 0.368051 171.264 0.396704 171.535 0.433721C175.85 0.956908 180.095 1.95963 184.189 3.42335C184.463 3.52147 184.737 3.62376 185.007 3.72605C189.479 5.40349 193.73 7.6231 197.664 10.3354C197.937 10.5234 198.211 10.7157 198.48 10.9079C201.144 12.8125 203.646 14.9342 205.96 17.2516C207.816 19.1103 209.546 21.0916 211.138 23.1822C211.415 23.541 211.684 23.905 211.954 24.2732C219.281 34.3221 223.215 46.4517 223.183 58.8957V211.536Z" fill="#CCCCCC"/>
<path d="M213.621 143.266C217.216 143.266 220.131 140.346 220.131 136.744C220.131 133.143 217.216 130.223 213.621 130.223C210.025 130.223 207.11 133.143 207.11 136.744C207.11 140.346 210.025 143.266 213.621 143.266Z" fill="#42A5F5"/>
<path d="M241.94 206.964H236.952L234.578 187.69L241.941 187.691L241.94 206.964Z" fill="#FFB8B8"/>
<path d="M233.388 205.536H243.009V211.604H227.331C227.331 210.807 227.488 210.018 227.792 209.282C228.096 208.546 228.543 207.877 229.105 207.313C229.668 206.75 230.335 206.303 231.07 205.998C231.805 205.693 232.593 205.536 233.388 205.536V205.536Z" fill="#2F2E41"/>
<path d="M266.761 206.964H261.772L259.399 187.69L266.762 187.691L266.761 206.964Z" fill="#FFB8B8"/>
<path d="M258.209 205.536H267.83V211.604H252.152C252.152 210.807 252.308 210.018 252.613 209.282C252.917 208.546 253.363 207.877 253.926 207.313C254.488 206.75 255.156 206.303 255.891 205.998C256.626 205.693 257.414 205.536 258.209 205.536V205.536Z" fill="#2F2E41"/>
<path d="M216.916 138.036C216.557 137.506 216.318 136.904 216.217 136.272C216.115 135.64 216.153 134.994 216.328 134.378C216.503 133.763 216.811 133.193 217.229 132.709C217.648 132.226 218.167 131.84 218.751 131.579L235.709 84.761L244.053 89.3224L224.691 134.063C225.063 135.074 225.053 136.187 224.661 137.191C224.269 138.194 223.523 139.019 222.565 139.509C221.606 139.999 220.502 140.119 219.461 139.848C218.42 139.576 217.514 138.932 216.916 138.036V138.036Z" fill="#FFB8B8"/>
<path d="M264.213 146.834C263.658 146.515 263.18 146.079 262.813 145.556C262.445 145.032 262.196 144.434 262.084 143.804C261.971 143.174 261.998 142.527 262.163 141.908C262.327 141.29 262.625 140.715 263.036 140.224L257.782 90.6987L267.278 91.1333L269.462 139.848C270.239 140.593 270.716 141.598 270.804 142.672C270.891 143.746 270.582 144.815 269.935 145.676C269.288 146.537 268.348 147.131 267.293 147.344C266.239 147.557 265.143 147.376 264.213 146.834V146.834Z" fill="#FFB8B8"/>
<path d="M249.064 76.0892C254.583 76.0892 259.057 71.6073 259.057 66.0785C259.057 60.5498 254.583 56.0679 249.064 56.0679C243.544 56.0679 239.07 60.5498 239.07 66.0785C239.07 71.6073 243.544 76.0892 249.064 76.0892Z" fill="#FFB8B8"/>
<path d="M264.149 135.57H234.02L234.056 135.335C234.11 134.984 239.426 100.104 235.505 88.6929C235.112 87.5715 235.146 86.344 235.602 85.2466C236.058 84.1492 236.903 83.2596 237.975 82.7489H237.975C243.578 80.1056 254.335 76.8507 263.414 84.7498C264.75 85.9313 265.793 87.4079 266.461 89.063C267.129 90.718 267.404 92.506 267.263 94.2856L264.149 135.57Z" fill="#42A5F5"/>
<path d="M239.806 105.259L226.242 102.502L232.6 87.4095C232.981 85.9477 233.924 84.6967 235.224 83.931C236.524 83.1653 238.075 82.9473 239.535 83.3249C240.995 83.7025 242.246 84.6449 243.014 85.9453C243.781 87.2457 244.003 88.7979 243.629 90.2616L239.806 105.259Z" fill="#42A5F5"/>
<path d="M257.179 110.377L256.364 91.652C255.745 88.1321 257.757 84.8045 260.851 84.2606C263.945 83.7187 266.967 86.16 267.588 89.7059L270.653 107.203L257.179 110.377Z" fill="#42A5F5"/>
<path d="M263.147 133.328C267.995 151.823 268.523 175.338 267.216 200.987L260.705 200.172L248.905 151.262L242.395 200.987L235.071 200.579C232.883 173.667 230.752 150.563 234.257 135.366L263.147 133.328Z" fill="#2F2E41"/>
<path d="M255.649 73.8151C253.784 75.8044 250.322 74.7365 250.079 72.0188C250.06 71.8078 250.061 71.5955 250.083 71.3848C250.209 70.1809 250.903 69.088 250.736 67.8169C250.699 67.5006 250.581 67.1991 250.395 66.9411C248.909 64.9483 245.421 67.8324 244.019 66.0284C243.16 64.9222 244.17 63.1805 243.51 61.9442C242.64 60.3124 240.06 61.1173 238.443 60.2237C236.643 59.2294 236.751 56.4636 237.936 54.7814C239.38 52.7298 241.913 51.635 244.415 51.4772C246.916 51.3195 249.4 51.9968 251.736 52.9084C254.389 53.9443 257.02 55.3758 258.653 57.7129C260.639 60.555 260.83 64.376 259.837 67.6994C259.233 69.721 257.171 72.1906 255.649 73.8151Z" fill="#2F2E41"/>
<path d="M341.786 211.798H41.3763C41.248 211.798 41.1252 211.747 41.0346 211.656C40.944 211.565 40.8932 211.441 40.8932 211.313C40.8932 211.184 40.944 211.061 41.0346 210.97C41.1252 210.879 41.248 210.828 41.3763 210.828H341.786C341.914 210.828 342.037 210.879 342.127 210.97C342.218 211.061 342.269 211.184 342.269 211.313C342.269 211.441 342.218 211.565 342.127 211.656C342.037 211.747 341.914 211.798 341.786 211.798V211.798Z" fill="#3F3D56"/>
<path d="M190.834 167.313H137.938C137.241 167.317 136.572 167.044 136.076 166.553C135.58 166.063 135.298 165.396 135.293 164.698V46.43C135.298 45.7322 135.58 45.065 136.076 44.5748C136.572 44.0846 137.241 43.8115 137.938 43.8152H190.834C191.531 43.8115 192.201 44.0846 192.697 44.5748C193.192 45.065 193.474 45.7322 193.479 46.43V164.698C193.474 165.396 193.192 166.063 192.697 166.553C192.201 167.044 191.531 167.317 190.834 167.313V167.313Z" fill="white"/>
<path d="M193.479 82.0833H135.293V82.8984H193.479V82.0833Z" fill="#CCCCCC"/>
<path d="M193.683 128.593H135.497V129.408H193.683V128.593Z" fill="#CCCCCC"/>
<path d="M154.417 43.8152H153.603V167.721H154.417V43.8152Z" fill="#CCCCCC"/>
<path d="M174.762 43.8152H173.948V167.721H174.762V43.8152Z" fill="#CCCCCC"/>
</g>
<defs>
<clipPath id="clip0">
<rect width="354" height="212" fill="white"/>
</clipPath>
</defs>
</svg>
