<svg width="15" height="24" viewBox="0 0 15 24" fill="none" xmlns="http://www.w3.org/2000/svg">
<g clip-path="url(#clip0)">
<path d="M9.75005 4.5C10.9922 4.5 12 3.49219 12 2.25C12 1.00781 10.9922 0 9.75005 0C8.50786 0 7.50005 1.00781 7.50005 2.25C7.50005 3.49219 8.50786 4.5 9.75005 4.5ZM14.1797 11.4891L13.0875 10.9359L12.6329 9.55781C11.9438 7.46719 10.0219 6.00469 7.84224 6C6.15474 5.99531 5.22192 6.47344 3.4688 7.18125C2.4563 7.58906 1.62661 8.3625 1.13911 9.34687L0.825049 9.98438C0.459424 10.725 0.754736 11.625 1.49067 11.9953C2.22192 12.3656 3.11255 12.0656 3.48286 11.325L3.79692 10.6875C3.96099 10.3594 4.23286 10.1016 4.57036 9.96563L5.82661 9.45938L5.11411 12.3047C4.87036 13.2797 5.13286 14.3156 5.81255 15.0609L8.62036 18.1266C8.95786 18.4969 9.19692 18.9422 9.3188 19.425L10.1766 22.8609C10.3782 23.6625 11.1938 24.1547 11.9954 23.9531C12.7969 23.7516 13.2891 22.9359 13.0875 22.1344L12.0469 17.9625C11.925 17.4797 11.686 17.0297 11.3485 16.6641L9.21567 14.3344L10.0219 11.1141L10.2797 11.8875C10.5282 12.6422 11.0625 13.2656 11.7657 13.6219L12.8579 14.175C13.5891 14.5453 14.4797 14.2453 14.85 13.5047C15.211 12.7688 14.9157 11.8594 14.1797 11.4891V11.4891ZM3.45005 18.0844C3.30005 18.4641 3.07505 18.8062 2.78442 19.0922L0.440674 21.4406C-0.145264 22.0266 -0.145264 22.9781 0.440674 23.5641C1.02661 24.15 1.97349 24.15 2.55942 23.5641L5.3438 20.7797C5.62974 20.4937 5.85474 20.1516 6.00942 19.7719L6.64224 18.1875C4.05005 15.3609 4.82817 16.2281 4.42036 15.6703L3.45005 18.0844V18.0844Z" fill="#718096"/>
</g>
<defs>
<clipPath id="clip0">
<rect width="15" height="24" fill="white"/>
</clipPath>
</defs>
</svg>
